<?xml version="1.0" encoding="utf-8"?>
<!-- Generator: Adobe Illustrator 21.1.0, SVG Export Plug-In . SVG Version: 6.00 Build 0)  -->
<svg version="1.1" id="Capa_1" xmlns="http://www.w3.org/2000/svg" xmlns:xlink="http://www.w3.org/1999/xlink" x="0px" y="0px"
	 viewBox="0 0 322 322" style="enable-background:new 0 0 322 322;" xml:space="preserve">
<style type="text/css">
	.st0{fill:#FDFFFF;}
</style>
<g>
	<path class="st0" d="M168.1,178h-18.2l-3.5,12.5h-18.5l20.2-60h22.2l20.3,60h-19.1L168.1,178z M164.8,166l-3.2-11.9l-2.6-9.8h-0.2
		l-2.5,9.7l-3.3,12H164.8z"/>
	<path class="st0" d="M2.8,4.1h31.9c14.7,0,22.1,5.4,22.1,16.1c0,3.7-1.1,6.7-3.3,9.1c-2.2,2.4-5.4,3.9-9.6,4.6v0.1
		c4.8,0.6,8.4,2.2,10.8,4.6c2.4,2.5,3.6,5.7,3.6,9.5c0,5.3-1.8,9.3-5.5,12c-3.6,2.7-9,4-16.3,4H2.8V4.1z M30.8,27.9
		c4.7,0,7-1.8,7-5.4c0-3.6-2.3-5.3-7-5.3H20.6v10.7H30.8z M32.3,51.6c4.7,0,7-1.8,7-5.4c0-3.6-2.3-5.4-7-5.4H20.6v10.8H32.3z"/>
	<polygon class="st0" points="312.3,50.2 312.3,64.1 261.6,64.1 261.6,4.1 311.1,4.1 311.1,18 280.1,18 280.1,27.7 303.9,27.7 
		303.9,40.6 280.1,40.6 280.1,50.2 	"/>
	<polygon class="st0" points="59.3,191 38.9,191 22.6,161.3 18.8,153.1 18.6,153.1 18.9,165 18.9,191 2.8,191 2.8,131 23,131 
		39.4,160.7 43.3,168.9 43.4,168.9 43,157 43,131 59.3,131 	"/>
	<polygon class="st0" points="312.3,177.1 312.3,191 261.6,191 261.6,131 280.1,131 280.1,177.1 	"/>
	<polygon class="st0" points="182.7,18.2 182.7,4.2 135.6,4.2 135.6,18.2 149.9,18.2 149.9,50.1 135.6,50.1 135.6,64.1 182.7,64.1 
		182.7,50.1 168.4,50.1 168.4,18.2 	"/>
	<path class="st0" d="M46.8,258.4c4.2,1.5,8.1,4.1,11.9,7.9l-9.1,11.7c-2.4-2.8-5-4.8-7.8-6c-2.8-1.2-5.9-1.9-9.5-1.9
		c-2.6,0-4.6,0.4-6.1,1.3c-1.5,0.8-2.2,2-2.2,3.4c0,1.1,0.8,1.9,2.3,2.6c1.5,0.6,4,1.2,7.5,1.9c5.8,1,10.5,2.4,13.9,4
		c3.5,1.6,6,3.8,7.6,6.3c1.6,2.5,2.4,5.7,2.4,9.4c0,4-1.2,7.4-3.5,10.3c-2.3,2.9-5.4,5-9.3,6.5c-4,1.4-8.4,2.2-13.4,2.2
		c-6.9,0-12.5-0.7-16.7-2.2c-4.2-1.5-8.2-3.8-11.8-7.1l8.6-12.7c2.4,2.9,5.1,4.9,8.1,6.1c3,1.2,6.5,1.9,10.6,1.9
		c5.5,0,8.2-1.3,8.2-4c0-1.1-0.8-2.1-2.4-2.7c-1.6-0.7-4.2-1.4-7.8-2c-4.8-0.9-8.9-2-12.2-3.3c-3.3-1.3-6-3.2-8.2-5.7
		c-2.2-2.5-3.3-5.9-3.3-10c0-3.9,1.1-7.4,3.2-10.4c2.1-3,5.2-5.4,9.3-7.1c4-1.7,8.9-2.6,14.5-2.6C37.7,256.1,42.7,256.8,46.8,258.4"
		/>
	<path class="st0" d="M187.1,291.8c0,17.4-9.3,26.1-28,26.1c-18.7,0-28-8.7-28-26.1V257h18.7v35.8c0,7.3,3.1,10.9,9.3,10.9
		c6.2,0,9.3-3.6,9.3-10.9V257h18.6V291.8z"/>
	<path class="st0" d="M287.3,297h-7.5v20.9h-18.2v-60h30.7c7.7,0,13.4,1.7,17.5,5.1c4,3.3,6,8.2,6,14.6c0,4.4-0.9,8-2.8,11
		c-1.9,3-4.7,5.2-8.4,6.6l14.6,22.8h-20.3L287.3,297z M279.8,284.4h9c3,0,5.2-0.5,6.4-1.5c1.3-1,1.9-2.6,1.9-4.9c0-2.3-0.6-3.9-2-5
		c-1.3-1-3.4-1.5-6.4-1.5h-9V284.4z"/>
</g>
</svg>
